<svg xmlns="http://www.w3.org/2000/svg" id="logo" viewBox="0 0 198.42 59.09"><defs><style>.cls-1{font-size:50px;font-family:Plain-Bold, Plain;font-weight:700;}.cls-1,.cls-3{fill:#141414;}.cls-2{fill:#dd0808;}.cls-4{fill:#fff;}</style></defs><title>logo-asibu</title><g id="sibu"><text class="cls-1" transform="translate(93.27 45.49)">sibu</text></g><g id="Layer_1_Layer_2_Image" data-name="Layer 1 + Layer 2 Image"><path class="cls-2" d="M45,39.88,63.48,3h12.3L102,58H89.79L66.87,8h5.52L56.05,43.89Zm7.3,1.25L51,37l29.38,1.13-.5,4.5Z" transform="translate(-6.2 -3)"/><path class="cls-3" d="M7,53.55a.61.61,0,0,1-.65-1c4.48-4.57,20-14.7,32.75-8.93C51.26,49.13,56.65,52.38,60,54a.61.61,0,0,1-.15,1.14c-3.29.65-10.95,1.8-18.36-1.48C34.73,50.64,29.68,46.34,7,53.55Z" transform="translate(-6.2 -3)"/><path class="cls-4" d="M12.67,41.13s9.57-21.49,39.07-8.24,39.5-1.95,42-4.35S95,36.39,88.49,42.89s-24.8,8-35,3-16.8-11.51-40.8-4.76" transform="translate(-6.2 -3)"/><path class="cls-2" d="M11.17,39.84s9.57-21.49,39.07-8.24,39.5-1.95,42-4.35S93.49,35.1,87,41.6s-24.8,8-35,3-16.8-11.51-40.8-4.76" transform="translate(-6.2 -3)"/></g></svg>